<?xml version="1.0" encoding="UTF-8" standalone="no"?>
<!-- Created with Inkscape (http://www.inkscape.org/) -->

<svg
   width="231.15646mm"
   height="137.26422mm"
   viewBox="0 0 231.15646 137.26422"
   version="1.1"
   id="svg5"
   sodipodi:docname="ESPN Bet (Stacked).svg"
   inkscape:version="1.1.2 (b8e25be833, 2022-02-05)"
   xmlns:inkscape="http://www.inkscape.org/namespaces/inkscape"
   xmlns:sodipodi="http://sodipodi.sourceforge.net/DTD/sodipodi-0.dtd"
   xmlns="http://www.w3.org/2000/svg"
   xmlns:svg="http://www.w3.org/2000/svg">
  <sodipodi:namedview
     id="namedview7"
     pagecolor="#ffffff"
     bordercolor="#666666"
     borderopacity="1.0"
     inkscape:pageshadow="2"
     inkscape:pageopacity="0.0"
     inkscape:pagecheckerboard="0"
     inkscape:document-units="mm"
     showgrid="false"
     inkscape:zoom="0.64052329"
     inkscape:cx="145.9744"
     inkscape:cy="107.72442"
     inkscape:window-width="1920"
     inkscape:window-height="1017"
     inkscape:window-x="-8"
     inkscape:window-y="-8"
     inkscape:window-maximized="1"
     inkscape:current-layer="layer1" />
  <defs
     id="defs2">
    <clipPath
       id="clip0_225_213">
      <rect
         width="511"
         height="70"
         fill="#ffffff"
         id="rect848"
         x="0"
         y="0" />
    </clipPath>
  </defs>
  <g
     inkscape:label="Layer 1"
     inkscape:groupmode="layer"
     id="layer1"
     transform="translate(-9.4889739,-55.248524)">
    <g
       style="fill:none"
       id="g871"
       transform="matrix(0.78431808,0,0,0.78431808,18.500448,54.658179)">
      <g
         clip-path="url(#clip0_225_213)"
         id="g846">
        <path
           d="m 123.784,27.8043 c -4.019,0 -43.0701,-0.015 -51.0023,-0.015 -1.7008,11.1473 3.8758,16.1903 11.7854,16.1903 4.3047,0 31.4129,-0.0151 31.4129,-0.0151 l -0.979,8.0086 H 69.8166 l -2.2728,18.5387 c 0,0 49.1882,0.0151 51.1832,0 1.64,-0.1204 13.155,-0.429 17.068,-9.8451 1.272,-3.0559 2.393,-14.0151 2.709,-16.3108 1.814,-13.3602 -7.435,-16.544 -14.72,-16.544 z"
           fill="#f5fbff"
           id="path824"
           style="fill:#000000;fill-opacity:1" />
        <path
           d="m 253.28,70.5118 23.224,-0.015 5.246,-42.7 -23.217,-0.0151 z"
           fill="#f5fbff"
           id="path826"
           style="fill:#000000;fill-opacity:1" />
        <path
           d="M 66.0913,43.9796 68.0781,27.7893 H 6.00555 L 0.752563,70.5118 H 62.8327 L 65.1205,51.9731 H 26.2499 l 0.9783,-7.9935 z"
           fill="#f5fbff"
           id="path828"
           style="fill:#000000;fill-opacity:1" />
        <path
           d="M 268.377,0.752716 H 217.736 L 215.335,20.3301 h 67.31 c 0,0 0.083,-0.7075 0.377,-3.0107 C 284.67,4.471 276.384,0.752716 268.377,0.752716 Z"
           fill="#f5fbff"
           id="path830"
           style="fill:#000000;fill-opacity:1" />
        <path
           d="m 145.059,27.7893 -5.245,42.7225 h 23.209 l 3.274,-26.5322 h 29.155 c 8.263,0 12.711,-4.4484 13.539,-10.4172 0.414,-3.0108 0.715,-5.7731 0.715,-5.7731 z"
           fill="#f5fbff"
           id="path832"
           style="fill:#000000;fill-opacity:1" />
        <path
           d="m 211.068,16.6871 c 1.031,-8.35482 -2.521,-15.934384 -15.436,-15.934384 0,0 -97.2099,0 -102.7564,0 C 82.347,0.737662 75.3857,6.28497 74.3998,14.5796 c -0.3613,3.0559 -0.7074,5.7505 -0.7074,5.7505 H 210.609 c 0,0 0.256,-2.0247 0.459,-3.643 z"
           fill="#f5fbff"
           id="path834"
           style="fill:#000000;fill-opacity:1" />
        <path
           d="m 209.171,70.5118 23.217,-0.015 5.253,-42.7 -23.232,-0.0151 z"
           fill="#f5fbff"
           id="path836"
           style="fill:#000000;fill-opacity:1" />
        <path
           d="M 71.397,0.752716 H 9.31689 L 6.91617,20.3301 H 69.0038 Z"
           fill="#f5fbff"
           id="path838"
           style="fill:#000000;fill-opacity:1" />
      </g>
    </g>
    <g
       id="g14952"
       transform="matrix(1.3228718,0,0,1.3228718,-3.0637222,-62.156936)"
       style="fill:#20f4ca;fill-opacity:1">
      <path
         d="m 56.384924,137.80593 h -40.26767 l -6.62828,54.70157 c 0,0 38.88022,0.0118 40.4567,0 1.29255,-0.0945 10.2228,-0.18306 13.3687,-7.59777 1.02118,-2.40864 1.80628,-9.11495 2.06589,-10.92736 0.63765,-4.39806 -1.71138,-6.94247 -4.05492,-8.4242 -0.51922,-0.32471 -0.3953,-1.11577 0.1953,-1.26926 2.47295,-0.63757 4.80473,-1.95405 5.44159,-4.75822 0.44863,-1.97178 0.88001,-6.3049 1.18668,-8.71354 1.39295,-10.11262 -5.40082,-13.00532 -11.76399,-13.00532 z m -1.55844,34.46443 -0.7553,6.06882 c -0.32471,2.8277 -2.50276,4.59877 -5.51297,4.79948 h -27.08093 l 1.55844,-13.07615 h 30.1382 c 2.02433,0 1.65883,2.20785 1.65883,2.20785 z m 2.96943,-22.82867 -0.7553,6.06874 c -0.32471,2.82778 -2.50276,4.59877 -5.51376,4.79955 h -27.08093 l 1.55844,-13.07622 h 30.13899 c 2.20158,0 1.65805,2.20793 1.65805,2.20793 z"
         fill="#20f4ca"
         id="path840"
         style="fill:#20f4ca;fill-opacity:1;stroke-width:0.784318" />
      <path
         d="m 123.01354,147.23376 1.1153,-9.40421 H 76.211704 l -6.72867,54.67795 h 47.923416 l 1.1153,-9.46327 -36.891196,0.12392 1.78825,-13.10564 h 31.048016 l 1.13334,-9.62264 H 84.605474 l 1.76471,-13.20611 z"
         fill="#20f4ca"
         id="path842"
         style="fill:#20f4ca;fill-opacity:1;stroke-width:0.784318" />
      <path
         d="m 179.006,137.82955 h -49.09831 l -1.12706,9.46326 h 19.1303 l -5.6016,45.21469 h 10.8432 l 5.66042,-45.21469 h 19.07697 z"
         fill="#20f4ca"
         id="path844"
         style="fill:#20f4ca;fill-opacity:1;stroke-width:0.784318" />
    </g>
  </g>
</svg>
